HIERARCHY
ROOT Hips
{
	OFFSET 0.00000 0.00000 0.00000
	CHANNELS 6 Xposition Yposition Zposition Zrotation Yrotation Xrotation 
	JOINT LHipJoint
	{
		OFFSET 0 0 0
		CHANNELS 3 Zrotation Yrotation Xrotation
		JOINT LeftHip
		{
			OFFSET 1.88772 -1.62769 0.85636
			CHANNELS 3 Zrotation Yrotation Xrotation
			JOINT LeftKnee
			{
				OFFSET 2.39836 -6.58946 0.00000
				CHANNELS 3 Zrotation Yrotation Xrotation
				JOINT LeftAnkle
				{
					OFFSET 2.78523 -7.65237 0.00000
					CHANNELS 3 Zrotation Yrotation Xrotation
					JOINT LeftToe
					{
						OFFSET 0.19551 -0.53715 1.90694
						CHANNELS 3 Zrotation Yrotation Xrotation
						End Site
						{
							OFFSET 0.00000 -0.00000 0.99735
						}
					}
				}
			}
		}
	}
	JOINT RHipJoint
	{
		OFFSET 0 0 0
		CHANNELS 3 Zrotation Yrotation Xrotation
		JOINT RightHip
		{
			OFFSET -1.74282 -1.62769 0.85636
			CHANNELS 3 Zrotation Yrotation Xrotation
			JOINT RightKnee
			{
				OFFSET -2.36062 -6.48575 0.00000
				CHANNELS 3 Zrotation Yrotation Xrotation
				JOINT RightAnkle
				{
					OFFSET -2.76258 -7.59014 0.00000
					CHANNELS 3 Zrotation Yrotation Xrotation
					JOINT RightToe
					{
						OFFSET -0.19308 -0.53048 2.03952
						CHANNELS 3 Zrotation Yrotation Xrotation
						End Site
						{
							OFFSET -0.00000 -0.00000 1.06031
						}
					}
				}
			}
		}
	}
	JOINT lowerback
	{
		OFFSET 0 0 0
		CHANNELS 3 Zrotation Yrotation Xrotation
		JOINT Chest
		{
			OFFSET -0.08299 2.03160 -0.30721
			CHANNELS 3 Zrotation Yrotation Xrotation
			JOINT Chest2
			{
				OFFSET -0.01030 2.00603 0.13891
				CHANNELS 3 Zrotation Yrotation Xrotation
				JOINT lowerneck
				{
					OFFSET 0 0 0
					CHANNELS 3 Zrotation Yrotation Xrotation
					JOINT Neck
					{
						OFFSET 0.04282 1.69578 0.19991
						CHANNELS 3 Zrotation Yrotation Xrotation
						JOINT Head
						{
							OFFSET -0.08665 1.66622 -0.03785
							CHANNELS 3 Zrotation Yrotation Xrotation
							End Site
							{
								OFFSET -0.03699 1.83329 -0.04094
							}
						}
					}
				}
				JOINT LeftCollar
				{
					OFFSET 0 0 0
					CHANNELS 3 Zrotation Yrotation Xrotation
					JOINT LeftShoulder
					{
						OFFSET 3.04219 1.50803 -0.05347
CHANNELS 3 Zrotation Xrotation Yrotation
						JOINT LeftElbow
						{
OFFSET 0 -5.791990 0.000000
CHANNELS 3 Zrotation Xrotation Yrotation
							JOINT LeftWrist
							{
OFFSET 0 -3.499080 0.000000
CHANNELS 3 Zrotation Xrotation Yrotation
								JOINT lhand
								{
									OFFSET 0 0 0
CHANNELS 3 Zrotation Xrotation Yrotation
									JOINT LFingers
									{
OFFSET 0 -0.593860 0.000000
CHANNELS 3 Zrotation Xrotation Yrotation
										End Site
										{
OFFSET 0 -0.478790 0.000000
										}
									}
								}
								JOINT LThumb
								{
OFFSET 0 0.000000 0.000000
CHANNELS 3 Zrotation Xrotation Yrotation
									End Site
									{
OFFSET 0 -0.486100 0.486100
									}
								}
							}
						}
					}
				}
				JOINT RightCollar
				{
					OFFSET 0 0 0
					CHANNELS 3 Zrotation Yrotation Xrotation
					JOINT RightShoulder
					{
						OFFSET -3.30316 1.18853 0.11175
CHANNELS 3 Zrotation Xrotation Yrotation
						JOINT RightElbow
						{
OFFSET 0 -5.737990 0.000000
CHANNELS 3 Zrotation Xrotation Yrotation
							JOINT RightWrist
							{
OFFSET 0 -3.579160 -0.000000
CHANNELS 3 Zrotation Xrotation Yrotation
								JOINT rhand
								{
									OFFSET 0 0 0
CHANNELS 3 Zrotation Xrotation Yrotation
									JOINT RFingers
									{
OFFSET 0 -0.615580 0.000000
CHANNELS 3 Zrotation Xrotation Yrotation
										End Site
										{
OFFSET 0 -0.496290 0.000000
										}
									}
								}
								JOINT RThumb
								{
OFFSET 0 0.000000 0.000000
CHANNELS 3 Zrotation Xrotation Yrotation
									End Site
									{
OFFSET 0 -0.503870 0.503870
									}
								}
							}
						}
					}
				}
			}
		}
	}
}
MOTION
Frames: 9
Frame Time: 0.008333333333333333
12.155400 17.365000 -8.817600 5.858200 -62.200700 1.818900 0.000000 0.000000 0.000000 -22.893200 -4.586600 -24.229400 3.882800 12.002700 35.741700 1.520200 3.962100 -25.006300 0.143100 2.438300 6.718700 0.000000 0.000000 0.000000 7.613700 9.315600 -13.631800 -3.769800 -11.847600 35.194900 -0.659900 -2.936300 -16.687600 -0.570000 4.835200 -13.439000 -7.681800 1.023600 3.686600 -2.217000 0.714500 -3.506400 1.924100 0.598400 -5.820800 3.078000 1.758500 -8.003900 -0.891700 2.074000 5.542800 -0.722900 1.061700 3.247500 0.000000 -0.000000 0.000000 11.654100 7.538300 -23.621400 21.753200 -32.696900 6.452000 13.611500 -26.362800 23.450400 0.000000 0.000000 0.000000 -7.125000 0.000000 0.000000 -9.632100 6.210500 -8.659800 0.000000 -0.000000 0.000000 -7.177700 18.793000 40.250000 -24.373900 -35.557200 -7.923000 -24.635000 8.061700 32.573100 0.000000 0.000000 0.000000 7.125000 0.000000 -0.000000 9.664700 64.834700 -4.658100
11.952821 17.327448 -9.386463 7.452263 -61.559265 0.468753 0.000000 0.000000 0.000000 -21.371062 -7.053302 -23.731820 3.850622 11.958862 35.586639 1.445076 5.950574 -25.545240 0.047653 1.406705 3.868591 0.000000 0.000000 0.000000 10.026763 10.009215 -10.972830 -3.131187 -10.904422 31.958201 -1.054457 -5.103851 -21.870736 -0.694561 5.307431 -14.792242 -7.616808 1.239328 2.865658 -2.192326 1.079272 -3.664532 1.894304 0.771159 -5.549366 2.803939 0.849332 -7.866338 -1.273633 0.919242 4.731980 -0.858465 0.463511 2.917787 0.000000 0.000000 0.000000 11.580856 9.197836 -20.933801 18.643514 -28.973013 4.857119 12.886237 -22.829700 21.859167 0.000000 0.000000 0.000000 -7.125000 0.000000 0.000000 -10.021880 7.888825 -8.688971 0.000000 0.000000 0.000000 -6.992196 17.745453 40.640405 -25.736755 -36.947366 -8.729037 -19.167191 3.812667 30.352020 0.000000 0.000000 0.000000 7.125000 0.000000 0.000000 14.405730 61.201516 -5.752665
11.762764 17.288390 -10.105509 7.673892 -61.005328 -0.129564 0.000000 0.000000 0.000000 -18.609309 -8.701715 -23.448354 3.833029 11.934791 35.501628 1.333753 6.869313 -25.279637 0.044917 1.340205 3.685841 0.000000 0.000000 0.000000 13.947736 12.475093 -7.767892 -2.576095 -9.974768 28.895153 -1.845685 -7.545373 -29.305745 -0.065104 -1.569853 4.319988 -6.421854 1.181960 2.966403 -2.019731 1.092198 -3.423728 1.412877 0.727914 -5.319395 2.509721 0.644063 -7.441196 -1.601442 0.699122 3.516644 -0.917483 0.333114 2.422873 0.000000 0.000000 0.000000 11.182634 11.436350 -18.765798 17.200628 -27.121437 4.178408 11.819509 -21.343115 21.329226 0.000000 0.000000 0.000000 -7.125000 0.000000 0.000000 -10.679672 8.534195 -9.140910 0.000000 0.000000 0.000000 -8.593365 17.076704 43.156858 -27.369146 -38.528915 -9.728227 -21.710014 3.751076 31.193115 0.000000 0.000000 0.000000 7.125000 0.000000 0.000000 12.126499 62.671229 -5.246745
11.665001 17.301387 -10.916174 3.503595 -59.281862 4.082846 0.000000 0.000000 0.000000 -13.213054 -12.424670 -24.249657 3.750608 11.820861 35.101246 0.852858 10.421403 -24.144374 0.091624 -1.852945 -5.102721 0.000000 0.000000 0.000000 19.208535 13.443941 -7.707174 -2.246976 -9.362557 26.936267 -1.575771 -11.338455 -30.178497 -0.024675 -1.014505 2.788761 -3.136944 1.090680 3.141790 -0.785355 1.231264 -3.205642 0.851399 0.703454 -5.131858 2.302670 0.502488 -6.924647 -2.895130 0.592601 2.736438 -1.296538 0.239284 2.077203 0.000000 0.000000 0.000000 8.732654 11.707172 -18.680222 17.440772 -27.435147 4.288499 11.346551 -22.210476 20.888957 0.000000 0.000000 0.000000 -7.125000 0.000000 0.000000 -10.970093 9.020633 -9.290528 0.000000 0.000000 0.000000 -9.759729 16.593549 40.742102 -27.584399 -38.730817 -9.862611 -21.219876 3.889039 31.688479 0.000000 0.000000 0.000000 7.125000 0.000000 0.000000 13.058025 63.031505 -5.768287
11.653952 17.327082 -11.755318 1.768000 -54.880130 6.889395 0.000000 0.000000 0.000000 -8.749014 -17.104170 -26.463922 3.500141 11.463644 33.860087 0.289892 12.621360 -21.226413 0.073250 -1.730021 -4.760579 0.000000 0.000000 0.000000 22.350294 10.875585 -11.114967 -2.122085 -9.115851 26.158343 -1.263902 -12.641576 -29.177675 -0.047818 -1.368630 3.764086 -0.898223 0.388872 3.877632 0.201461 0.463763 -3.064132 0.673684 0.263493 -5.356673 2.517396 0.436988 -6.569543 -3.984925 0.513391 1.873685 -1.681979 0.177412 1.741533 0.000000 0.000000 0.000000 7.589778 12.163157 -23.536023 21.621929 -32.546978 6.381353 11.315333 -23.639935 22.283136 0.000000 0.000000 0.000000 -7.125000 0.000000 0.000000 -11.019467 7.639903 -9.641252 0.000000 0.000000 0.000000 -9.967521 15.346649 39.303702 -25.930613 -37.140143 -8.845775 -21.724948 3.180061 31.701397 0.000000 0.000000 0.000000 7.125000 0.000000 0.000000 12.480169 63.177376 -5.550291
11.679724 17.281536 -12.365766 3.896302 -50.519896 5.175304 0.000000 0.000000 0.000000 -8.693630 -17.973597 -27.137333 3.252192 11.092501 32.592401 0.979427 8.613492 -23.692512 0.071454 -1.721264 -4.736050 0.000000 0.000000 0.000000 22.589302 9.703857 -13.626094 -2.385177 -9.626064 27.774053 -1.329422 -13.935495 -30.742252 -0.443595 -4.272741 11.845266 -1.167772 0.072049 4.383869 0.699566 0.048263 -2.422412 1.375767 0.073664 -4.967436 2.459463 0.304491 -6.029458 -4.931984 0.359146 1.318534 -1.977817 0.086645 1.469106 0.000000 0.000000 0.000000 6.829646 11.297481 -26.057757 25.035548 -36.240246 8.310884 11.436166 -24.760743 22.296285 0.000000 0.000000 0.000000 -7.125000 0.000000 0.000000 -10.944680 7.613868 -9.578751 0.000000 0.000000 0.000000 -10.411793 13.692855 37.167026 -22.961011 -34.045208 -7.116825 -17.547390 4.645255 31.327222 0.000000 0.000000 0.000000 7.125000 0.000000 0.000000 16.908339 61.749889 -6.976561
11.736336 17.265190 -12.723005 4.344709 -47.987300 4.091296 0.000000 0.000000 0.000000 -10.899439 -8.754942 -28.792543 4.244827 12.478981 37.448560 0.946218 2.890293 -19.636712 0.415625 -4.126567 -11.434668 0.000000 0.000000 0.000000 23.191349 10.386835 -13.975056 -2.589678 -9.999166 28.973877 -1.203522 -15.859644 -31.720251 -0.357509 -3.841072 10.630010 -0.862394 0.010419 4.761012 0.849458 -0.009131 -2.483777 1.365850 0.039749 -5.244869 3.417694 1.123329 -5.093093 -6.108901 1.472142 2.038910 -2.511021 0.632782 1.613291 0.000000 0.000000 0.000000 7.330015 11.175087 -25.987817 24.748989 -35.946368 8.142104 10.547099 -23.855668 23.307275 0.000000 0.000000 0.000000 -7.125000 0.000000 0.000000 -11.522971 6.708240 -10.313657 0.000000 0.000000 0.000000 -10.210724 13.898800 35.108492 -21.493237 -32.399501 -6.312119 -16.599026 5.130541 32.639457 0.000000 0.000000 0.000000 7.125000 0.000000 0.000000 19.052373 62.744358 -8.367029
11.798449 17.189996 -12.788820 3.555400 -49.526418 4.062772 0.000000 0.000000 0.000000 -11.457998 -7.598317 -24.749021 4.600009 12.918666 39.064753 0.909761 0.819251 -18.337478 0.455313 -4.328305 -12.002156 0.000000 0.000000 0.000000 23.812453 11.057389 -14.301437 -2.833777 -10.421002 30.351137 -1.356784 -14.770813 -31.662782 -0.361473 -3.862225 10.689422 -0.165321 0.413759 4.248081 1.109815 0.588637 -2.947709 1.191889 0.316431 -5.451394 5.155710 3.450850 -5.033458 -7.466500 4.682297 4.981060 -3.200405 2.197474 2.861340 0.000000 0.000000 0.000000 7.355776 12.207171 -23.949131 21.995050 -32.971427 6.583172 10.805829 -23.548044 22.800766 0.000000 0.000000 0.000000 -7.125000 0.000000 0.000000 -11.349878 7.181663 -10.045968 0.000000 0.000000 0.000000 -10.711914 14.092988 34.616245 -21.339816 -32.222881 -6.230123 -16.533903 4.514054 31.414528 0.000000 0.000000 0.000000 7.125000 0.000000 0.000000 18.103368 61.572928 -7.437538
11.840724 17.187048 -12.774990 4.306678 -50.728854 4.374557 0.000000 0.000000 0.000000 -13.110848 -11.022115 -21.234188 3.658941 11.692100 34.651418 1.509435 5.910931 -25.996198 0.136997 -2.381383 -6.561114 0.000000 0.000000 0.000000 22.959015 12.171993 -15.822100 -3.033532 -10.749226 31.438613 -1.283326 -14.803923 -31.231994 -0.207440 -2.931514 8.088281 -0.830364 0.513352 2.982029 0.733508 0.661407 -3.402539 1.176098 0.369007 -5.209161 5.878216 5.701537 -5.390834 -6.514938 7.605044 5.530394 -2.843471 3.686193 3.314187 0.000000 0.000000 0.000000 8.128738 11.348240 -20.733018 17.382572 -27.359263 4.261751 10.325406 -19.538924 22.221018 0.000000 0.000000 0.000000 -7.125000 0.000000 0.000000 -11.636575 7.805132 -10.165897 0.000000 0.000000 0.000000 -9.445718 14.428307 34.847507 -22.776547 -33.843431 -7.013492 -23.803263 4.951031 33.223050 0.000000 0.000000 0.000000 7.125000 0.000000 0.000000 11.190450 65.248925 -5.509116
